# xmcd CD database file
#
# Track frame offsets:
#	150
#	22370
#	44762
#	72681
#	90973
#	109945
#	128580
#	147776
#	163033
#	174763
#	195419
#	232448
#	246388
#	268713
#	283724
#
# Disc length: 3963 seconds
#
# Revision: 4
# Processed by: cddbd v1.5.2PL0 Copyright (c) Steve Scherf et al.
# Submitted via: CDex 1.70beta2
#
DISCID=e40f790f
DTITLE=Various Artist - World Tour - Salsa Rhythm  CD2 (US Styles)
DYEAR=2008
DGENRE=Data
TTITLE0=Gloria Estefan - Oye Mi Canto  (Spanish)
TTITLE1=Jon Secada - Papi  (Tropical Remix)
TTITLE2=LTJ Xperience feat. Joe Bataan - Ordinary Guy  (Latin Club Edit)
TTITLE3=Ricky Martin - Livin' La Vida Loca  (Spanish Version)
TTITLE4=MFSB - K-Jee
TTITLE5=Ritmo Imposible - Oleila
TTITLE6=Fruko Y Sus Tesos - Pa' Goza Con Fruko
TTITLE7=Mama Inez - Cuba L.A.
TTITLE8=The Harvey Averne Dozen - The Word  (LP Version)
TTITLE9=Los Nemus Del Pacifico - Castigala
TTITLE10=Ray Barretto - Pastime Paradise
TTITLE11=Maria Victoria Y Su Latin Son Mara - Asi Es El Amor
TTITLE12=Latinos En La Casa - Vete Ya
TTITLE13=Los Rigual - El Tiburon
TTITLE14=Michi Sarmiento - Suena Ahora
EXTD=Kultur Spiegel Compilation YEAR: 2008
EXTT0=
EXTT1=
EXTT2=
EXTT3=
EXTT4=
EXTT5=
EXTT6=
EXTT7=
EXTT8=
EXTT9=
EXTT10=
EXTT11=
EXTT12=
EXTT13=
EXTT14=
PLAYORDER=
